<svg width="21" height="19" viewBox="0 0 21 19" fill="none" xmlns="http://www.w3.org/2000/svg">
<path d="M11.207 2.2591C11.207 2.13254 11.147 2.01117 11.0403 1.92169C10.9336 1.8322 10.7889 1.78192 10.638 1.78192C10.4871 1.78192 10.3424 1.8322 10.2357 1.92169C10.129 2.01117 10.069 2.13254 10.069 2.2591V3.71639C8.81708 3.83378 7.66066 4.33408 6.82093 5.12163C5.98119 5.90917 5.51706 6.92868 5.5173 7.98519V13.6292L3.71254 15.1428H17.5634L15.7587 13.6292V7.98519C15.7589 6.92868 15.2948 5.90917 14.4551 5.12163C13.6153 4.33408 12.4589 3.83378 11.207 3.71639V2.2591ZM10.638 0.827576C11.0907 0.827576 11.5248 0.978396 11.8449 1.24686C12.1651 1.51532 12.3449 1.87943 12.3449 2.2591V2.93382C14.9724 3.55701 16.8966 5.58214 16.8966 7.98519V13.2341L20.3104 16.0971H0.965576L4.37937 13.2341V7.98519C4.37937 6.84252 4.82383 5.73104 5.64528 4.81941C6.46674 3.90778 7.62037 3.24576 8.93109 2.93382V2.2591C8.93109 1.87943 9.11093 1.51532 9.43103 1.24686C9.75114 0.978396 10.1853 0.827576 10.638 0.827576ZM10.638 18.9602C9.98217 18.9603 9.34645 18.7704 8.83841 18.4226C8.33037 18.0747 7.98122 17.5904 7.85006 17.0515H9.02782C9.1451 17.3311 9.363 17.5733 9.65141 17.7446C9.93983 17.916 10.2846 18.008 10.638 18.008C10.9914 18.008 11.3361 17.916 11.6246 17.7446C11.913 17.5733 12.1309 17.3311 12.2482 17.0515H13.4259C13.2948 17.5904 12.9456 18.0747 12.4376 18.4226C11.9295 18.7704 11.2938 18.9603 10.638 18.9602Z" fill="#2A2E3A"/>
</svg>
